#N canvas 827 239 527 327 12;
#X obj 10 65 dac~, f 7;
#X obj -111 66 plugin_latency;
#X obj 10 6 adc~ 1 2;
#X obj -111 6 loadbang;
#N canvas 0 50 450 300 (subpatch) 0;
#X obj 77 25 inlet~ lin, f 13;
#X obj 76 486 outlet~ lin;
#X obj 99 64 tabreceive~ window\$0, f 21;
#X obj 77 98 *~, f 6;
#X obj 77 363 rifft~, f 12;
#X obj 77 179 /~;
#X obj 105 129 r norm\$0;
#X obj 77 208 rfft~, f 12;
#X obj 186 391 tabreceive~ window\$0, f 21;
#X obj 76 445 *~, f 6;
#X obj 77 234 norm-mag;
#X obj 308 64 tabreceive~ window\$0, f 21;
#X obj 286 98 *~, f 6;
#X obj 286 179 /~;
#X obj 314 129 r norm\$0;
#X obj 286 208 rfft~, f 12;
#X obj 286 20 pink~;
#X obj 77 321 *~;
#X obj 143 321 *~;
#X obj 286 234 norm-mag;
#X obj 511 35 block~ 512 4 1;
#X connect 0 0 3 0;
#X connect 2 0 3 1;
#X connect 3 0 5 0;
#X connect 4 0 9 0;
#X connect 5 0 7 0;
#X connect 6 0 5 1;
#X connect 7 0 10 0;
#X connect 7 1 10 1;
#X connect 8 0 9 1;
#X connect 9 0 1 0;
#X connect 10 0 17 0;
#X connect 10 1 18 0;
#X connect 11 0 12 1;
#X connect 12 0 13 0;
#X connect 13 0 15 0;
#X connect 14 0 13 1;
#X connect 15 0 19 0;
#X connect 15 1 19 1;
#X connect 16 0 12 0;
#X connect 17 0 4 0;
#X connect 18 0 4 1;
#X connect 19 2 18 1;
#X connect 19 2 17 1;
#X restore 10 32 pd;
#N canvas 0 0 450 250 (subpatch) 0;
#X array window\$0 512 float 2;
#X coords 0 1 512 -1 200 140 1;
#X restore 28 124 graph;
#X obj 498 124 expr $f1*3/2;
#X obj 205 76 t f f f f f;
#X obj 237 157 else/tabgen window\$0;
#X obj 498 161 s norm\$0;
#X obj 381 203 loadmess \$0;
#X obj 337 237 pack;
#X msg 337 279 \; window\$2 resize \$1;
#X msg 237 124 kaiser 8;
#X obj 205 4 loadbang;
#X obj 205 30 512;
#X obj -111 37 expr 512 - 64;
#N canvas 0 50 450 300 (subpatch) 1;
#X obj 77 25 inlet~ lin, f 13;
#X obj 76 486 outlet~ lin;
#X obj 99 64 tabreceive~ window\$0, f 21;
#X obj 77 98 *~, f 6;
#X obj 77 363 rifft~, f 12;
#X obj 77 179 /~;
#X obj 105 129 r norm\$0;
#X obj 77 208 rfft~, f 12;
#X obj 186 391 tabreceive~ window\$0, f 21;
#X obj 76 445 *~, f 6;
#X obj 308 64 tabreceive~ window\$0, f 21;
#X obj 286 98 *~, f 6;
#X obj 286 179 /~;
#X obj 314 129 r norm\$0;
#X obj 286 208 rfft~, f 12;
#X obj 286 20 pink~;
#X obj 77 321 *~;
#X obj 143 321 *~;
#X obj 511 35 block~ 512 4 1;
#X obj 98 242 mag~;
#X obj 286 234 mag~;
#X obj 77 274 /~;
#X obj 143 274 /~;
#X connect 0 0 3 0;
#X connect 2 0 3 1;
#X connect 3 0 5 0;
#X connect 4 0 9 0;
#X connect 5 0 7 0;
#X connect 6 0 5 1;
#X connect 7 0 19 0;
#X connect 7 0 21 0;
#X connect 7 1 19 1;
#X connect 7 1 22 0;
#X connect 8 0 9 1;
#X connect 9 0 1 0;
#X connect 10 0 11 1;
#X connect 11 0 12 0;
#X connect 12 0 14 0;
#X connect 13 0 12 1;
#X connect 14 0 20 0;
#X connect 14 1 20 1;
#X connect 15 0 11 0;
#X connect 16 0 4 0;
#X connect 17 0 4 1;
#X connect 19 0 21 1;
#X connect 19 0 22 1;
#X connect 20 0 16 1;
#X connect 20 0 17 1;
#X connect 21 0 16 0;
#X connect 22 0 17 0;
#X restore 46 32 pd;
#X connect 2 0 4 0;
#X connect 2 1 17 0;
#X connect 3 0 16 0;
#X connect 4 0 0 0;
#X connect 6 0 9 0;
#X connect 7 2 13 0;
#X connect 7 3 11 0;
#X connect 7 4 6 0;
#X connect 10 0 11 1;
#X connect 11 0 12 0;
#X connect 13 0 8 0;
#X connect 14 0 15 0;
#X connect 15 0 7 0;
#X connect 16 0 1 0;
#X connect 17 0 0 1;
